<svg width="213" height="79" viewBox="0 0 213 79" fill="none" xmlns="http://www.w3.org/2000/svg">
<g clip-path="url(#clip0)">
<path fill-rule="evenodd" clip-rule="evenodd" d="M97 59.4864C94.25 59.6544 87.05 60.2704 81 60.8544C74.95 61.4384 60.177 63.4864 48.171 65.4054C36.165 67.3254 21.54 69.2994 15.671 69.7934L5 70.6924L18 70.3294C25.36 70.1244 40.08 68.6304 51.928 66.8854C63.438 65.1904 79.413 63.3024 87.428 62.6904C96.455 62.0004 112.464 61.8154 129.5 62.2034C144.625 62.5484 166.225 63.4934 177.5 64.3034C188.775 65.1134 200.678 65.7864 203.95 65.7984C207.532 65.8114 209.522 65.4604 208.95 64.9154C208.428 64.4184 200.35 63.2834 191 62.3944C181.65 61.5054 165.225 60.3444 154.5 59.8134C143.775 59.2824 127.575 58.9224 118.5 59.0144C109.425 59.1064 99.75 59.3184 97 59.4864Z" fill="black"/>
<path d="M43.482 59.36C42.378 58.8693 41.09 57.9493 39.618 56.6C38.146 55.2507 36.95 53.8707 36.03 52.46C35.846 52.4907 35.5853 52.506 35.248 52.506C31.292 52.506 28.4707 51.4787 26.784 49.424C25.0973 47.3387 24.254 44.2873 24.254 40.27V26.378C24.254 22.3607 25.0973 19.34 26.784 17.316C28.4707 15.292 31.292 14.28 35.248 14.28C39.1733 14.28 41.9793 15.3073 43.666 17.362C45.3833 19.386 46.242 22.3913 46.242 26.378V40.316C46.242 43.076 45.8433 45.376 45.046 47.216C44.2487 49.056 42.976 50.4053 41.228 51.264C42.7613 52.9813 44.0187 54.116 45 54.668L43.482 59.36ZM35.248 47.078C36.5667 47.078 37.4407 46.6487 37.87 45.79C38.2993 44.9007 38.514 43.6893 38.514 42.156V24.538C38.514 23.0047 38.2993 21.824 37.87 20.996C37.4407 20.1373 36.5667 19.708 35.248 19.708C33.8987 19.708 33.0093 20.122 32.58 20.95C32.1813 21.778 31.982 22.974 31.982 24.538V42.156C31.982 43.72 32.1967 44.9313 32.626 45.79C33.0553 46.6487 33.9293 47.078 35.248 47.078ZM51.3099 14.74H58.8539V46.848H67.6399V52H51.3099V14.74ZM72.4602 20.352H66.7102V14.74H85.7542V20.352H80.0962V52H72.4602V20.352Z" fill="#463011"/>
<path d="M89.5941 14.74H102.98V17.362H93.0901V31.392H101.324V33.968H93.0901V52H89.5941V14.74ZM116.17 52.46C112.674 52.46 110.19 51.4633 108.718 49.47C107.277 47.4767 106.556 44.6553 106.556 41.006V25.55C106.556 21.9313 107.292 19.1713 108.764 17.27C110.236 15.338 112.705 14.372 116.17 14.372C119.574 14.372 122.012 15.338 123.484 17.27C124.956 19.202 125.692 21.962 125.692 25.55V41.052C125.692 44.7013 124.972 47.5227 123.53 49.516C122.089 51.4787 119.636 52.46 116.17 52.46ZM116.17 49.654C118.44 49.654 120.004 48.9947 120.862 47.676C121.721 46.3267 122.15 44.364 122.15 41.788V24.906C122.15 22.33 121.721 20.398 120.862 19.11C120.034 17.822 118.47 17.178 116.17 17.178C113.84 17.178 112.245 17.822 111.386 19.11C110.528 20.3673 110.098 22.2993 110.098 24.906V41.788C110.098 44.3947 110.528 46.3573 111.386 47.676C112.245 48.9947 113.84 49.654 116.17 49.654ZM140.338 52.46C136.842 52.46 134.358 51.4633 132.886 49.47C131.445 47.4767 130.724 44.6553 130.724 41.006V25.55C130.724 21.9313 131.46 19.1713 132.932 17.27C134.404 15.338 136.873 14.372 140.338 14.372C143.742 14.372 146.18 15.338 147.652 17.27C149.124 19.202 149.86 21.962 149.86 25.55V41.052C149.86 44.7013 149.14 47.5227 147.698 49.516C146.257 51.4787 143.804 52.46 140.338 52.46ZM140.338 49.654C142.608 49.654 144.172 48.9947 145.03 47.676C145.889 46.3267 146.318 44.364 146.318 41.788V24.906C146.318 22.33 145.889 20.398 145.03 19.11C144.202 17.822 142.638 17.178 140.338 17.178C138.008 17.178 136.413 17.822 135.554 19.11C134.696 20.3673 134.266 22.2993 134.266 24.906V41.788C134.266 44.3947 134.696 46.3573 135.554 47.676C136.413 48.9947 138.008 49.654 140.338 49.654ZM155.674 14.74H163.77C167.45 14.74 170.057 15.6907 171.59 17.592C173.124 19.4627 173.89 22.1613 173.89 25.688V40.5C173.89 44.2107 173.139 47.0627 171.636 49.056C170.164 51.0187 167.65 52 164.092 52H155.674V14.74ZM163.862 49.378C165.733 49.378 167.128 48.9947 168.048 48.228C168.999 47.4307 169.612 46.388 169.888 45.1C170.164 43.7813 170.302 42.064 170.302 39.948V26.056C170.302 24.032 170.134 22.422 169.796 21.226C169.459 19.9993 168.815 19.064 167.864 18.42C166.914 17.776 165.534 17.454 163.724 17.454H159.17V49.378H163.862ZM187.574 52.46C184.661 52.46 182.438 51.5707 180.904 49.792C179.371 47.9827 178.497 45.4987 178.282 42.34L181.364 41.42C181.64 44.0573 182.223 46.0813 183.112 47.492C184.032 48.9027 185.535 49.608 187.62 49.608C191.116 49.608 192.864 47.814 192.864 44.226C192.864 42.6927 192.496 41.3433 191.76 40.178C191.055 39.0127 189.905 37.6787 188.31 36.176L181.732 29.874C180.536 28.77 179.662 27.62 179.11 26.424C178.589 25.1973 178.328 23.848 178.328 22.376C178.328 19.8307 179.08 17.868 180.582 16.488C182.116 15.0773 184.17 14.372 186.746 14.372C189.506 14.372 191.622 15.108 193.094 16.58C194.566 18.052 195.425 20.4593 195.67 23.802L192.68 24.584C192.496 22.0693 191.96 20.1987 191.07 18.972C190.212 17.7453 188.77 17.132 186.746 17.132C185.152 17.132 183.879 17.546 182.928 18.374C181.978 19.202 181.502 20.4287 181.502 22.054C181.502 23.0967 181.702 24.032 182.1 24.86C182.499 25.688 183.174 26.562 184.124 27.482L190.702 33.692C192.389 35.2867 193.708 36.9273 194.658 38.614C195.64 40.27 196.13 42.064 196.13 43.996C196.13 46.6947 195.348 48.78 193.784 50.252C192.22 51.724 190.15 52.46 187.574 52.46Z" fill="black"/>
</g>
<defs>
<clipPath id="clip0">
<rect width="213" height="79" fill="white"/>
</clipPath>
</defs>
</svg>
